<svg width="32" height="32" viewBox="0 0 32 32" fill="none" xmlns="http://www.w3.org/2000/svg">
<path d="M15.9816 26.7355C17.3129 26.7355 18.3881 25.7371 18.5161 24.4316H13.4473C13.5753 25.7372 14.6505 26.7355 15.9817 26.7355H15.9816Z" fill="black"/>
<path d="M23.4055 19.8236V14.7548C23.4055 12.9116 22.7142 11.1451 21.4342 9.81398C21.0246 9.37881 20.5639 8.99469 20.0774 8.68754C20.0774 8.68754 18.7974 7.97074 17.9013 7.76594C17.8758 7.76594 17.8501 7.76594 17.8245 7.7404C17.8758 7.56112 17.9013 7.35648 17.9013 7.1772C17.9013 6.12756 17.031 5.2572 15.9813 5.2572C14.9317 5.2572 14.0613 6.12756 14.0613 7.1772C14.0613 7.38202 14.0869 7.56113 14.1637 7.7404C12.7813 8.04755 11.5269 8.76431 10.5285 9.81396C9.24864 11.145 8.55758 12.9115 8.55758 14.7548V18.7996H20.0776C20.3592 18.7996 20.5895 19.0299 20.5895 19.3115C20.5895 19.5931 20.3592 19.8235 20.0776 19.8235H8.55758C7.58473 19.8235 6.76562 20.617 6.76562 21.6154C6.76562 22.5883 7.58492 23.4074 8.55758 23.4074H16.212L22.6376 23.4076H23.4056C24.3785 23.4076 25.1976 22.5883 25.1976 21.6156C25.1976 20.617 24.3783 19.8235 23.4054 19.8235L23.4055 19.8236Z" fill="black"/>
<circle cx="9" cy="10" r="4" fill="#D9B608"/>
</svg>
