<svg width="18" height="20" viewBox="0 0 18 20" fill="none" xmlns="http://www.w3.org/2000/svg">
<path d="M14.3336 2.01521H13.2668V1.482C13.2668 1.18736 13.028 0.948608 12.7336 0.948608C12.4389 0.948608 12.2002 1.18736 12.2002 1.482V2.01521H5.80019V1.482C5.80019 1.18736 5.56144 0.948608 5.2668 0.948608C4.97233 0.948608 4.73359 1.18736 4.73359 1.482V2.01521H3.6668C2.81825 2.01521 2.00431 2.35236 1.40412 2.95254C0.80394 3.55272 0.466797 4.36667 0.466797 5.21521V15.8822C0.466797 16.7307 0.80394 17.5447 1.40412 18.1449C2.00431 18.745 2.81825 19.0822 3.6668 19.0822H14.3338C15.1823 19.0822 15.9963 18.745 16.5964 18.1449C17.1966 17.5447 17.5338 16.7307 17.5338 15.8822V5.21521C17.5338 4.36667 17.1966 3.55272 16.5964 2.95254C15.9963 2.35236 15.1823 2.01521 14.3338 2.01521H14.3336ZM9.0001 15.8822C7.58565 15.8822 6.22904 15.3202 5.22885 14.32C4.22867 13.3199 3.66671 11.9632 3.66671 10.5488C3.66671 9.13435 4.22867 7.77773 5.22885 6.77755C6.22904 5.77736 7.58565 5.2154 9.0001 5.2154C10.4145 5.2154 11.7712 5.77736 12.7713 6.77755C13.7715 7.77773 14.3335 9.13435 14.3335 10.5488C14.3335 11.9632 13.7715 13.3199 12.7713 14.32C11.7712 15.3202 10.4145 15.8822 9.0001 15.8822ZM11.6667 10.5487C11.6667 10.6901 11.6105 10.8257 11.5105 10.9258C11.4105 11.0258 11.2747 11.0819 11.1333 11.0819H9.00065L9.00011 11.0821C8.70565 11.0821 8.46672 10.8432 8.46672 10.5487V7.88191C8.46672 7.58745 8.70565 7.3487 9.00011 7.3487C9.29475 7.3487 9.53351 7.58745 9.53351 7.88209V10.0153H11.1335C11.428 10.0153 11.6667 10.2541 11.6667 10.5487H11.6667Z" fill="#B3B3B3"/>
</svg>
