<svg width="22" height="22" viewBox="0 0 22 22" fill="none" xmlns="http://www.w3.org/2000/svg">
<path d="M0.755882 9.95011H9.7008C9.9758 9.95011 10.2008 9.72511 10.2008 9.45009V0.500145C10.2008 0.225146 9.97582 0.00012207 9.7008 0.00012207H0.755882C0.480883 0.00012207 0.255859 0.225123 0.255859 0.500145V9.44506C0.255859 9.72506 0.48086 9.95007 0.755882 9.95007V9.95011Z" fill="#C4C4C4"/>
<path d="M12.2969 9.95011H21.2418C21.5168 9.95011 21.7418 9.72511 21.7418 9.45009V0.500145C21.7418 0.225146 21.5168 0.00012207 21.2418 0.00012207H12.2969C12.0219 0.00012207 11.7969 0.225123 11.7969 0.500145V9.44506C11.7969 9.72506 12.0219 9.95007 12.2969 9.95007V9.95011Z" fill="#C4C4C4"/>
<path d="M0.755882 21.4903H9.7008C9.9758 21.4903 10.2008 21.2653 10.2008 20.9902V12.0403C10.2008 11.7653 9.97582 11.5403 9.7008 11.5403H0.755882C0.480883 11.5403 0.255859 11.7653 0.255859 12.0403V20.9852C0.255859 21.2652 0.48086 21.4902 0.755882 21.4902V21.4903Z" fill="#C4C4C4"/>
<path d="M12.2969 21.4903H21.2418C21.5168 21.4903 21.7418 21.2653 21.7418 20.9902V12.0403C21.7418 11.7653 21.5168 11.5403 21.2418 11.5403H12.2969C12.0219 11.5403 11.7969 11.7653 11.7969 12.0403V20.9852C11.7969 21.2652 12.0219 21.4902 12.2969 21.4902V21.4903Z" fill="#C4C4C4"/>
</svg>
