<svg width="22" height="22" viewBox="0 0 22 22" fill="none" xmlns="http://www.w3.org/2000/svg">
<path d="M0.754905 9.95011H9.69982C9.97482 9.95011 10.1998 9.72511 10.1998 9.45009V0.500145C10.1998 0.225146 9.97484 0.00012207 9.69982 0.00012207H0.754905C0.479907 0.00012207 0.254883 0.225123 0.254883 0.500145V9.44506C0.254883 9.72506 0.479884 9.95007 0.754905 9.95007V9.95011Z" fill="black"/>
<path d="M12.2949 9.95011H21.2399C21.5149 9.95011 21.7399 9.72511 21.7399 9.45009V0.500145C21.7399 0.225146 21.5149 0.00012207 21.2399 0.00012207H12.2949C12.0199 0.00012207 11.7949 0.225123 11.7949 0.500145V9.44506C11.7949 9.72506 12.0199 9.95007 12.2949 9.95007V9.95011Z" fill="black"/>
<path d="M0.754905 21.4903H9.69982C9.97482 21.4903 10.1998 21.2653 10.1998 20.9902V12.0403C10.1998 11.7653 9.97484 11.5403 9.69982 11.5403H0.754905C0.479907 11.5403 0.254883 11.7653 0.254883 12.0403V20.9852C0.254883 21.2652 0.479884 21.4902 0.754905 21.4902V21.4903Z" fill="black"/>
<path d="M12.2949 21.4903H21.2399C21.5149 21.4903 21.7399 21.2653 21.7399 20.9902V12.0403C21.7399 11.7653 21.5149 11.5403 21.2399 11.5403H12.2949C12.0199 11.5403 11.7949 11.7653 11.7949 12.0403V20.9852C11.7949 21.2652 12.0199 21.4902 12.2949 21.4902V21.4903Z" fill="black"/>
</svg>
