<svg width="129" height="130" viewBox="0 0 129 130" fill="none" xmlns="http://www.w3.org/2000/svg">
<path d="M110.234 19.5201C98.8104 7.86653 83.4247 0.931108 67.1276 0.0888455L63.0017 0.00012207H0.00549316V130H63.0165L67.1571 129.926C79.6564 129.288 91.7054 125.054 101.856 117.732C112.006 110.41 119.827 100.313 124.376 88.6538C128.926 76.9945 130.012 64.2694 127.503 52.0078C124.994 39.7463 118.998 28.4702 110.234 19.5349V19.5201ZM4.02779 4.00763H60.6061L4.02779 60.5711V4.00763ZM4.02779 125.963V69.0889L61.0054 125.963H4.02779ZM64.0369 123.922L5.07771 65.0371L64.0369 6.00398V123.922ZM107.395 107.744C96.9696 118.463 82.9605 124.965 68.0444 126.007V3.96327C79.6858 4.79041 90.8474 8.93179 100.211 15.8983C109.574 22.8648 116.749 32.3654 120.886 43.2781C125.024 54.1907 125.952 66.0596 123.562 77.4829C121.171 88.9062 115.561 99.4067 107.395 107.744Z" fill="#00A7B5"/>
</svg>
