<svg width="16" height="16" viewBox="0 0 16 16" fill="none" xmlns="http://www.w3.org/2000/svg">
<path d="M12.1338 2.26668C10.8672 1.13335 9.20049 0.533348 7.46716 0.733351C4.80046 0.933351 2.60046 2.86668 2.13379 5.33335C1.80046 6.93333 2.13379 8.53333 3.13379 9.86666L6.53379 14.6C6.80049 15.0667 7.40049 15.3333 8.00049 15.3333C8.60049 15.3333 9.20049 15.0667 9.53382 14.5333L12.9338 9.8C13.6672 8.8 14.0005 7.66667 14.0005 6.46669C14.0005 4.86668 13.3338 3.33335 12.1338 2.26668Z" fill="#D9B608"/>
<path d="M8.00007 8.73316C9.25193 8.73316 10.2667 7.71836 10.2667 6.4665C10.2667 5.21466 9.25193 4.19983 8.00007 4.19983C6.7482 4.19983 5.7334 5.21466 5.7334 6.4665C5.7334 7.71836 6.7482 8.73316 8.00007 8.73316Z" fill="white"/>
</svg>
