<svg width="22" height="26" viewBox="0 0 22 26" fill="none" xmlns="http://www.w3.org/2000/svg">
<path d="M5.2522 2.23897C5.02952 2.23897 4.86523 2.4079 4.86523 2.61522V4.93467C4.86523 4.98449 4.87506 5.03378 4.89416 5.07967C4.91345 5.12574 4.94166 5.16735 4.97702 5.20235C5.01238 5.23735 5.05452 5.26503 5.10059 5.2836C5.14684 5.30217 5.19631 5.31146 5.24613 5.31092H16.7721C16.8722 5.31092 16.9685 5.27146 17.0399 5.20092C17.1112 5.13057 17.1519 5.03485 17.153 4.93468V2.61522C17.153 2.40486 16.9794 2.23897 16.766 2.23897H15.6171L14.081 0.702881H7.93697L6.40088 2.23897L5.2522 2.23897Z" fill="#C4C4C4"/>
<path fill-rule="evenodd" clip-rule="evenodd" d="M0.256836 5.29856C0.256836 3.61212 1.62968 2.24393 3.32879 2.23891V6.08659C3.32879 6.51658 3.67897 6.84695 4.1122 6.84695H17.9056C18.3388 6.84695 18.689 6.50588 18.689 6.08659V2.23891H18.6797C19.4939 2.23641 20.2759 2.5573 20.8536 3.13107C21.4313 3.70483 21.7577 4.48444 21.761 5.29856V22.2192C21.761 23.9087 20.3833 25.2789 18.6797 25.2789H3.33848C2.52421 25.2814 1.74222 24.9605 1.16453 24.3867C0.586842 23.813 0.260442 23.0334 0.257196 22.2192L0.256836 5.29856ZM4.86484 12.2229C4.86484 12.6347 5.20876 12.991 5.6327 12.991H16.3847C16.7993 12.991 17.1526 12.6468 17.1526 12.2229C17.1526 11.8113 16.8086 11.455 16.3847 11.455H5.6327C5.21806 11.455 4.86484 11.799 4.86484 12.2229ZM4.86484 18.3669C4.86484 18.7785 5.20876 19.135 5.6327 19.135H16.3847C16.7993 19.135 17.1526 18.7908 17.1526 18.3669C17.1526 17.9553 16.8086 17.5989 16.3847 17.5989H5.6327C5.21806 17.5989 4.86484 17.943 4.86484 18.3669ZM16.3848 14.5269H5.63284C5.20873 14.5269 4.86497 14.8707 4.86497 15.2948C4.86497 15.7191 5.20872 16.0628 5.63284 16.0628H16.3848C16.8089 16.0628 17.1527 15.7191 17.1527 15.2948C17.1527 14.8707 16.809 14.5269 16.3848 14.5269Z" fill="#C4C4C4"/>
</svg>
