<svg width="12" height="12" viewBox="0 0 12 12" fill="none" xmlns="http://www.w3.org/2000/svg">
<path d="M8.06266 11.1263C8.19739 11.127 8.33203 11.1183 8.46552 11.1C9.46694 10.9682 10.3215 10.3471 10.9389 9.2816V9.28169C11.1936 8.82534 11.1936 8.26973 10.9389 7.81339C10.577 7.13286 9.99978 6.59133 9.29747 6.27366C8.87096 6.07938 8.37836 6.09465 7.96479 6.31509C7.45729 6.57715 7.05763 7.00876 6.83532 7.53482C6.35818 7.22981 5.91953 6.8683 5.52899 6.45813C5.11827 6.06814 4.75676 5.62938 4.45231 5.1518C4.97765 4.92841 5.40899 4.52903 5.67203 4.02243C5.89248 3.60876 5.90783 3.11619 5.71346 2.68965C5.39463 1.98814 4.85346 1.41125 4.17373 1.04823C3.71748 0.793492 3.16178 0.793492 2.70553 1.04823C1.66267 1.68449 1.03776 2.53914 0.905987 3.54058C0.714023 5.00503 1.58366 6.75178 3.42073 8.58538C5.0885 10.2569 6.68473 11.1266 8.06256 11.1266L8.06266 11.1263ZM1.66266 3.63445C1.75302 2.86275 2.24239 2.23399 3.10079 1.71829C3.21516 1.65258 3.34543 1.62007 3.47722 1.62418C3.60874 1.62293 3.7383 1.65534 3.85375 1.71829C4.39196 2.00133 4.8191 2.45758 5.06598 3.01328C5.16937 3.21944 5.16937 3.46231 5.06598 3.66837C4.80241 4.08997 4.3582 4.49283 3.97418 4.49283C3.86954 4.48711 3.76713 4.52533 3.69185 4.59827C3.61765 4.66899 3.57551 4.76685 3.57515 4.86934C3.57515 5.03121 3.6806 5.66371 5.01703 7.00015C6.35345 8.33658 6.98596 8.43069 7.1365 8.43069C7.24043 8.43086 7.3398 8.38818 7.41106 8.31256C7.48231 8.23702 7.51928 8.13533 7.51302 8.03167C7.49044 7.65523 7.88946 7.20346 8.32624 6.97382H8.32615C8.53231 6.87034 8.77518 6.87034 8.98123 6.97382C9.53703 7.2207 9.99328 7.64774 10.2763 8.18604C10.4036 8.41417 10.4036 8.69203 10.2763 8.92015C9.77561 9.7823 9.14695 10.2679 8.36007 10.3695C7.1365 10.5164 5.6307 9.71827 3.95161 8.05432C2.27259 6.3903 1.48944 4.86941 1.65127 3.63466L1.66266 3.63445Z" fill="black"/>
</svg>
