<svg width="41" height="40" viewBox="0 0 41 40" fill="none" xmlns="http://www.w3.org/2000/svg">
<path d="M27.0873 22.2562C16.7926 21.0506 9.74988 14.8077 6.27687 10.4148C2.81076 6.0289 5.01333 2.68228 4.85452 2.19727C5.21356 3.2643 10.2056 17.3159 27.1978 22.2146C27.2806 22.2354 27.3497 22.2562 27.4325 22.2839C27.3221 22.2839 27.2047 22.27 27.0873 22.2562Z" fill="#F05A28"/>
<path d="M25.8166 21.1952C25.7544 21.1606 25.6992 21.1259 25.6371 21.0913C12.2421 13.7468 10.6748 0.970033 10.5712 0C10.6127 0.436515 8.50675 4.53837 10.5367 8.59172C12.5667 12.6451 17.0823 18.1396 25.5266 21.0982C25.6233 21.1329 25.7199 21.1606 25.8166 21.1952Z" fill="#F6921E"/>
<path d="M3.27327 39.5919C10.4748 30.0786 16.5508 38.5733 26.8318 34.0488C33.9919 30.8962 31.3198 27.5011 37.9482 24.7989C39.2117 24.2861 41.0069 24.3554 41.0069 24.3554C41.0069 24.3554 40.7929 24.0852 39.8746 23.5032C38.9563 22.9281 38.3418 22.8796 38.3418 22.8796C38.3418 22.8796 38.1415 22.3253 36.9746 21.5562C35.8078 20.7871 33.7019 20.7386 31.9481 21.5908C30.7674 22.1659 29.2415 22.8519 27.1287 22.6232C15.8673 21.3968 5.93844 14.0246 0.394043 7.60156C0.400948 8.75867 21.17 34.8733 3.27327 39.5919Z" fill="#EE4036"/>
</svg>
