<svg width="148" height="40" viewBox="0 0 148 40" fill="none" xmlns="http://www.w3.org/2000/svg">
<g clip-path="url(#clip0_1001_227)">
<path d="M0.559272 39.3836C0.220947 39.3836 0 39.1619 0 38.8223V13.1095C0 12.77 0.220947 12.5483 0.559272 12.5483H4.12895C4.46037 12.5483 4.68822 12.77 4.68822 13.1095V15.8533H4.74346C5.91724 13.553 8.2579 11.9316 11.8345 11.9316C13.9542 11.9316 15.9634 12.7146 17.3029 13.9479C17.5791 14.2251 17.6343 14.4537 17.4134 14.7309L15.3489 17.4747C15.128 17.7518 14.8449 17.8073 14.5687 17.5855C13.3397 16.8026 12.0002 16.2968 10.4397 16.2968C6.36604 16.2968 4.68822 19.491 4.68822 24.1402V38.8154C4.68822 39.1549 4.46727 39.3766 4.12895 39.3766H0.559272V39.3836Z" fill="#0C1F55"/>
<path d="M18.3663 32.7744C17.7518 30.9244 17.4756 29.0744 17.4756 25.9426C17.4756 22.8593 17.7518 21.0093 18.3663 19.1662C19.8162 14.5724 23.7242 11.9395 28.9165 11.9395C34.1088 11.9395 38.0168 14.5724 39.4667 19.1662C40.0812 21.0162 40.3574 22.8662 40.3574 25.9426C40.3574 29.0813 40.0812 30.9313 39.4667 32.7744C38.0168 37.3127 34.1088 40.0011 28.9165 40.0011C23.7242 40.0011 19.8162 37.3127 18.3663 32.7744ZM34.9442 31.4302C35.393 29.9751 35.5587 28.5201 35.5587 25.9426C35.5587 23.3651 35.393 21.9654 34.9442 20.5104C34.0535 17.822 31.8717 16.3115 28.9165 16.3115C25.9544 16.3115 23.7795 17.822 22.8888 20.5104C22.44 21.9654 22.2743 23.3651 22.2743 25.9426C22.2743 28.5201 22.44 29.9751 22.8888 31.4302C23.7795 34.1186 25.9613 35.629 28.9165 35.629C31.8786 35.629 34.0535 34.1186 34.9442 31.4302Z" fill="#0C1F55"/>
<path d="M45.6672 39.3837C45.3289 39.3837 45.1079 39.1619 45.1079 38.8224V1.8503C45.1079 1.51771 45.3289 1.28906 45.6672 1.28906H49.2369C49.5683 1.28906 49.7961 1.51078 49.7961 1.8503V15.6317H49.8514C51.1356 13.5046 53.421 11.9317 57.4464 11.9317C62.0794 11.9317 65.3177 14.1143 66.6571 18.3755C67.3821 20.5027 67.6031 22.6367 67.6031 25.9418C67.6031 29.3022 67.3821 31.4294 66.6571 33.5635C65.3177 37.8247 62.0794 40.0073 57.4464 40.0073C53.4279 40.0073 51.1356 38.379 49.8514 36.2518H49.7961V38.8294C49.7961 39.1689 49.5752 39.3906 49.2369 39.3906H45.6672V39.3837ZM62.1899 31.5402C62.6387 30.1406 62.8044 28.4015 62.8044 25.9348C62.8044 23.5236 62.6387 21.7914 62.1899 20.3294C61.2992 17.6965 59.2899 16.2969 56.3279 16.2969C53.3658 16.2969 51.3013 17.6411 50.4106 20.3294C49.9618 21.6736 49.7961 23.2395 49.7961 25.9348C49.7961 28.6232 49.9618 30.2515 50.4106 31.5402C51.3013 34.2286 53.3727 35.6282 56.3279 35.6282C59.283 35.6282 61.2992 34.1732 62.1899 31.5402Z" fill="#0C1F55"/>
<path d="M72.7951 6.49952C72.4637 6.49952 72.2358 6.2778 72.2358 5.93829V1.8503C72.2358 1.51771 72.4568 1.28906 72.7951 1.28906H76.5926C76.9241 1.28906 77.1519 1.51078 77.1519 1.8503V5.93829C77.1519 6.27087 76.931 6.49952 76.5926 6.49952H72.7951ZM72.9056 39.3836C72.5673 39.3836 72.3463 39.1619 72.3463 38.8224V13.1096C72.3463 12.7701 72.5673 12.5484 72.9056 12.5484H76.4753C76.8067 12.5484 77.0345 12.7701 77.0345 13.1096V38.8224C77.0345 39.1619 76.8136 39.3836 76.4753 39.3836H72.9056Z" fill="#0C1F55"/>
<path d="M100.766 39.3836C100.434 39.3836 100.207 39.1619 100.207 38.8223V23.1355C100.207 18.8189 98.2526 16.3037 94.2341 16.3037C90.6023 16.3037 88.0959 18.8812 88.0959 22.8584V38.8223C88.0959 39.1619 87.875 39.3836 87.5367 39.3836H83.967C83.6287 39.3836 83.4077 39.1619 83.4077 38.8223V13.1095C83.4077 12.77 83.6287 12.5483 83.967 12.5483H87.5367C87.8681 12.5483 88.0959 12.77 88.0959 13.1095V15.5762H88.1512C89.4354 13.5045 92.0039 11.9316 95.6288 11.9316C101.436 11.9316 104.895 15.9088 104.895 22.0131V38.8223C104.895 39.1619 104.674 39.3836 104.336 39.3836H100.766Z" fill="#0C1F55"/>
<path d="M134.087 22.2562C123.793 21.0506 116.75 14.8077 113.277 10.4148C109.811 6.0289 112.013 2.68228 111.855 2.19727C112.214 3.2643 117.206 17.3159 134.198 22.2146C134.281 22.2354 134.35 22.2562 134.433 22.2839C134.322 22.2839 134.205 22.27 134.087 22.2562Z" fill="#F05A28"/>
<path d="M132.817 21.1952C132.754 21.1606 132.699 21.1259 132.637 21.0913C119.242 13.7468 117.675 0.970033 117.571 0C117.613 0.436515 115.507 4.53837 117.537 8.59172C119.567 12.6451 124.082 18.1396 132.527 21.0982C132.623 21.1329 132.72 21.1606 132.817 21.1952Z" fill="#F6921E"/>
<path d="M110.273 39.5919C117.475 30.0786 123.551 38.5733 133.832 34.0488C140.992 30.8962 138.32 27.5011 144.948 24.7989C146.212 24.2861 148.007 24.3554 148.007 24.3554C148.007 24.3554 147.793 24.0852 146.875 23.5032C145.956 22.9281 145.342 22.8796 145.342 22.8796C145.342 22.8796 145.142 22.3253 143.975 21.5562C142.808 20.7871 140.702 20.7386 138.948 21.5908C137.767 22.1659 136.241 22.8519 134.129 22.6232C122.867 21.3968 112.938 14.0246 107.394 7.60156C107.401 8.75867 128.17 34.8733 110.273 39.5919Z" fill="#EE4036"/>
</g>
<defs>
<clipPath id="clip0_1001_227">
<rect width="148" height="40" fill="white"/>
</clipPath>
</defs>
</svg>
