<svg width="26" height="26" viewBox="0 0 26 26" fill="none" xmlns="http://www.w3.org/2000/svg">
<path d="M25.4649 7.60449C25.0656 6.68037 23.9648 5.97893 23.0149 6.0454C22.0651 6.11201 20.9669 5.74076 20.4805 5.27736C19.9941 4.81395 19.5997 3.71827 19.6357 2.76344C19.6717 1.8086 18.9369 0.738612 17.9974 0.364852C17.058 -0.00889838 15.7882 0.275211 15.1635 0.989492C14.5389 1.7036 13.4919 2.22844 12.8262 2.24897C12.1606 2.2695 11.1008 1.7702 10.4557 1.07397C9.81051 0.377561 8.528 0.129332 7.60388 0.528601C6.67977 0.92787 5.97316 2.02876 6.03977 2.97861C6.10638 3.92842 5.73513 5.02666 5.27172 5.51306C4.80832 5.99946 3.71264 6.38858 2.76297 6.35786C1.81316 6.32696 0.737964 7.05912 0.364204 7.99859C-0.00972551 8.93825 0.274562 10.2079 0.988661 10.8325C1.70295 11.4571 2.22775 12.5043 2.24832 13.1673C2.26889 13.8304 1.77225 14.8927 1.07332 15.5378C0.374398 16.183 0.123518 17.463 0.527952 18.3923C0.932419 19.3216 2.02811 20.023 2.97796 19.9564C3.92777 19.8898 5.02601 20.261 5.51241 20.7244C5.99881 21.1878 6.39314 22.2784 6.35721 23.2332C6.32128 24.188 7.05613 25.2582 7.99812 25.632C8.94025 26.0057 10.2074 25.7216 10.832 25.0073C11.4567 24.293 12.5012 23.7682 13.1667 23.758C13.8322 23.7478 14.892 24.242 15.5424 24.9382C16.1926 25.6344 17.4726 25.8726 18.3968 25.4732C19.321 25.0739 20.0276 23.9782 19.961 23.0284C19.8944 22.0786 20.2656 20.9804 20.729 20.4939C21.1922 20.0077 22.2854 19.6186 23.2403 19.657C24.1951 19.6954 25.2653 18.958 25.639 18.0161C26.0128 17.0739 25.7337 15.8068 25.0144 15.177C24.2949 14.5472 23.7703 13.5129 23.7523 12.8396C23.7344 12.1664 24.231 11.1143 24.9324 10.4691C25.2821 10.0902 25.5174 9.6204 25.6115 9.11361C25.7058 8.60664 25.6549 8.08362 25.4649 7.60449ZM14.9689 17.5729C13.7559 18.0974 12.3841 18.1185 11.1555 17.6312C9.92695 17.144 8.94231 16.1885 8.41838 14.9752C7.89444 13.7619 7.8741 12.3901 8.36194 11.1617C8.84962 9.93328 9.80551 8.94919 11.0193 8.42576C12.2328 7.90238 13.6046 7.88272 14.8327 8.37112C16.0609 8.85935 17.0446 9.81578 17.5673 11.0295C18.09 12.2409 18.1109 13.6102 17.6251 14.837C17.1394 16.0636 16.1869 17.0475 14.9766 17.5729L14.9689 17.5729Z" fill="black"/>
</svg>
