<svg width="26" height="22" viewBox="0 0 26 22" fill="none" xmlns="http://www.w3.org/2000/svg">
<path d="M14.1358 2.97719V18.1772C14.1482 18.3752 14.0821 18.5702 13.9519 18.7201C13.8216 18.8697 13.6376 18.9622 13.4398 18.9772H11.3278C11.3762 18.7133 11.4003 18.4456 11.3998 18.1772C11.3998 16.4624 10.485 14.8777 8.99979 14.0202C7.51462 13.1629 5.68495 13.1629 4.19979 14.0202C2.71462 14.8777 1.79979 16.4624 1.79979 18.1772C1.8005 18.4292 1.82193 18.6808 1.86371 18.9291C1.36552 18.7763 0.931738 18.4625 0.630663 18.037C0.329594 17.6115 0.177987 17.0981 0.199769 16.5771V2.97715C0.162448 2.38305 0.360661 1.79804 0.751358 1.34876C1.14225 0.899653 1.69403 0.622314 2.28777 0.577148H12.0478C12.6413 0.622327 13.1933 0.899649 13.584 1.34876C13.9749 1.79804 14.1731 2.38305 14.1358 2.97715L14.1358 2.97719Z" fill="black"/>
<path d="M9.80039 18.1772C9.80039 19.9445 8.3677 21.3772 6.60039 21.3772C4.83308 21.3772 3.40039 19.9445 3.40039 18.1772C3.40039 16.4099 4.83308 14.9772 6.60039 14.9772C8.3677 14.9772 9.80039 16.4099 9.80039 18.1772Z" fill="black"/>
<path d="M23.4 18.1772C23.4 19.9445 21.9673 21.3772 20.2 21.3772C18.4327 21.3772 17 19.9445 17 18.1772C17 16.4099 18.4327 14.9772 20.2 14.9772C21.9673 14.9772 23.4 16.4099 23.4 18.1772Z" fill="black"/>
<path d="M25.1763 10.1772H15.7363V2.97717H20.9761C21.4758 2.97717 21.9631 3.13271 22.3702 3.42235C22.7773 3.71181 23.0841 4.1211 23.2481 4.59323L25.1763 10.1772Z" fill="black"/>
<path d="M25.8002 12.1374V16.5774C25.8006 17.2629 25.5063 17.9156 24.9922 18.3694C24.9988 18.3056 25.0015 18.2415 25.0002 18.1774C25.0006 16.6754 24.2977 15.2601 23.1011 14.3524C21.9045 13.4449 20.3518 13.1499 18.9058 13.5554C17.4595 13.9609 16.2867 15.02 15.7363 16.4173V11.7773H25.7281L25.7601 11.8734C25.7851 11.9591 25.7985 12.0479 25.8001 12.1373L25.8002 12.1374Z" fill="black"/>
</svg>
