<svg width="34" height="32" viewBox="0 0 34 32" fill="none" xmlns="http://www.w3.org/2000/svg">
<path d="M15.2716 11.1897L0.273763 6.27734C0.109582 6.2229 0 6.33179 0 6.49551V26.8552C0 26.9645 0.0546007 27.0189 0.164183 27.0734L15.1621 31.9857C15.2716 32.0402 15.4358 31.9313 15.4358 31.7676V11.4078C15.3812 11.2986 15.3266 11.2441 15.2716 11.1893V11.1897Z" fill="#D9B608"/>
<path d="M29.9969 4.36679L16.6412 0H16.5316L3.1758 4.36679C2.95702 4.42124 2.95702 4.69423 3.1758 4.74906L16.5316 9.11585H16.6412L29.9969 4.74906C30.1611 4.74906 30.1611 4.47606 29.9969 4.36679Z" fill="#D9B608"/>
<path d="M32.8964 6.27686L17.8986 11.1892C17.789 11.2436 17.7344 11.2985 17.7344 11.4074V31.7671C17.7344 31.9308 17.8986 31.9852 18.0081 31.9852L33.006 27.0729C33.1156 27.0185 33.1702 26.9636 33.1702 26.8547V6.49503C33.1702 6.3313 33.006 6.22241 32.8964 6.27686Z" fill="#D9B608"/>
</svg>
